<svg width="152" height="28" viewBox="0 0 152 28" fill="none" xmlns="http://www.w3.org/2000/svg">
<rect x="0.671591" y="0.671591" width="26.6568" height="26.6568" rx="3.62659" stroke="#6B61E7" stroke-width="1.34318"/>
<path d="M19.3999 14.2745V15.1898H7.59305V14.2745H19.3999Z" fill="#6B61E7"/>
<path d="M8.87442 14.8237C8.87442 16.0874 7.84998 17.1118 6.58626 17.1118C5.32254 17.1118 4.2981 16.0874 4.2981 14.8237C4.2981 13.5599 5.32254 12.5355 6.58626 12.5355C7.84998 12.5355 8.87442 13.5599 8.87442 14.8237Z" fill="#6B61E7"/>
<path d="M23.7017 6.58626C23.7017 7.84998 22.6773 8.87442 21.4136 8.87442C20.1498 8.87442 19.1254 7.84998 19.1254 6.58626C19.1254 5.32254 20.1498 4.2981 21.4136 4.2981C22.6773 4.2981 23.7017 5.32254 23.7017 6.58626Z" fill="#6B61E7"/>
<path d="M12.8321 9.56097C14.5353 7.61937 16.5483 5.57606 19.6629 6.12864L19.503 7.02978C16.9431 6.57561 15.2493 8.19334 13.5202 10.1645C12.6798 11.1226 11.8243 12.1705 10.8964 12.9635C9.95803 13.7655 8.88896 14.3589 7.59305 14.3589V13.4436C8.58531 13.4436 9.44978 12.996 10.3018 12.2678C11.1644 11.5306 11.9565 10.5592 12.8321 9.56097Z" fill="#6B61E7"/>
<path d="M12.8321 19.8047C14.5353 21.7463 16.5483 23.7896 19.6629 23.237L19.503 22.3359C16.9431 22.79 15.2493 21.1723 13.5202 19.2012C12.6798 18.243 11.8243 17.1951 10.8964 16.4021C9.95803 15.6001 8.88896 15.0067 7.59305 15.0067V15.922C8.58531 15.922 9.44978 16.3696 10.3018 17.0979C11.1644 17.8351 11.9565 18.8065 12.8321 19.8047Z" fill="#6B61E7"/>
<path d="M23.7017 14.6406C23.7017 15.9043 22.6773 16.9288 21.4136 16.9288C20.1498 16.9288 19.1254 15.9043 19.1254 14.6406C19.1254 13.3769 20.1498 12.3524 21.4136 12.3524C22.6773 12.3524 23.7017 13.3769 23.7017 14.6406Z" fill="#6B61E7"/>
<path d="M23.7017 22.6949C23.7017 23.9587 22.6773 24.9831 21.4136 24.9831C20.1498 24.9831 19.1254 23.9587 19.1254 22.6949C19.1254 21.4312 20.1498 20.4068 21.4136 20.4068C22.6773 20.4068 23.7017 21.4312 23.7017 22.6949Z" fill="#6B61E7"/>
<path d="M46.094 22.228C45.0933 22.228 44.1687 22.0507 43.32 21.696C42.484 21.3287 41.7493 20.8157 41.116 20.157C40.4953 19.4983 40.014 18.7257 39.672 17.839C39.33 16.9523 39.159 15.9833 39.159 14.932C39.159 13.868 39.33 12.8927 39.672 12.006C40.014 11.1193 40.4953 10.3467 41.116 9.688C41.7367 9.02933 42.4713 8.52267 43.32 8.168C44.1687 7.80067 45.0933 7.617 46.094 7.617C47.0693 7.617 47.9433 7.788 48.716 8.13C49.5013 8.472 50.16 8.91533 50.692 9.46C51.2367 10.0047 51.623 10.5873 51.851 11.208L50.141 11.987C49.8117 11.2017 49.2987 10.5683 48.602 10.087C47.9053 9.593 47.0693 9.346 46.094 9.346C45.106 9.346 44.2257 9.58033 43.453 10.049C42.693 10.5177 42.0977 11.17 41.667 12.006C41.2363 12.842 41.021 13.8173 41.021 14.932C41.021 16.034 41.2363 17.003 41.667 17.839C42.0977 18.675 42.693 19.3273 43.453 19.796C44.2257 20.2647 45.106 20.499 46.094 20.499C47.0693 20.499 47.9053 20.2583 48.602 19.777C49.2987 19.283 49.8117 18.6433 50.141 17.858L51.851 18.637C51.623 19.2577 51.2367 19.8403 50.692 20.385C50.16 20.9297 49.5013 21.373 48.716 21.715C47.9433 22.057 47.0693 22.228 46.094 22.228ZM58.4731 22.228C57.4851 22.228 56.5921 22 55.7941 21.544C54.9961 21.0753 54.3628 20.4357 53.8941 19.625C53.4254 18.8143 53.1911 17.896 53.1911 16.87C53.1911 15.844 53.4191 14.932 53.8751 14.134C54.3438 13.336 54.9771 12.7027 55.7751 12.234C56.5731 11.7653 57.4724 11.531 58.4731 11.531C59.4611 11.531 60.3541 11.7653 61.1521 12.234C61.9501 12.69 62.5771 13.317 63.0331 14.115C63.5018 14.913 63.7361 15.8313 63.7361 16.87C63.7361 17.9087 63.4954 18.8333 63.0141 19.644C62.5328 20.442 61.8931 21.0753 61.0951 21.544C60.3098 22 59.4358 22.228 58.4731 22.228ZM58.4731 20.518C59.1064 20.518 59.6764 20.3597 60.1831 20.043C60.7024 19.7263 61.1078 19.2893 61.3991 18.732C61.7031 18.1747 61.8551 17.554 61.8551 16.87C61.8551 16.1733 61.7031 15.559 61.3991 15.027C61.1078 14.4823 60.7024 14.0517 60.1831 13.735C59.6764 13.4057 59.1064 13.241 58.4731 13.241C57.8271 13.241 57.2444 13.4057 56.7251 13.735C56.2184 14.0517 55.8131 14.4823 55.5091 15.027C55.2051 15.559 55.0531 16.1733 55.0531 16.87C55.0531 17.554 55.2051 18.1747 55.5091 18.732C55.8131 19.2893 56.2184 19.7263 56.7251 20.043C57.2444 20.3597 57.8271 20.518 58.4731 20.518ZM65.6607 22V11.759H67.3897V13.754L67.1047 13.583C67.3581 12.937 67.7634 12.4367 68.3207 12.082C68.8907 11.7147 69.5557 11.531 70.3157 11.531C71.0504 11.531 71.7027 11.6957 72.2727 12.025C72.8554 12.3543 73.3114 12.8103 73.6407 13.393C73.9827 13.9757 74.1537 14.6343 74.1537 15.369V22H72.3677V15.939C72.3677 15.369 72.2664 14.8877 72.0637 14.495C71.8611 14.1023 71.5697 13.7983 71.1897 13.583C70.8224 13.355 70.3981 13.241 69.9167 13.241C69.4354 13.241 69.0047 13.355 68.6247 13.583C68.2574 13.7983 67.9661 14.1087 67.7507 14.514C67.5354 14.9067 67.4277 15.3817 67.4277 15.939V22H65.6607ZM80.4632 22.114C79.4626 22.114 78.6899 21.829 78.1452 21.259C77.6132 20.689 77.3472 19.8847 77.3472 18.846V13.45H75.4852V11.759H75.8652C76.3212 11.759 76.6822 11.6197 76.9482 11.341C77.2142 11.0623 77.3472 10.695 77.3472 10.239V9.403H79.1142V11.759H81.4132V13.45H79.1142V18.789C79.1142 19.131 79.1649 19.4287 79.2662 19.682C79.3802 19.9353 79.5639 20.138 79.8172 20.29C80.0706 20.4293 80.4062 20.499 80.8242 20.499C80.9129 20.499 81.0206 20.4927 81.1472 20.48C81.2866 20.4673 81.4132 20.4547 81.5272 20.442V22C81.3626 22.038 81.1789 22.0633 80.9762 22.076C80.7736 22.1013 80.6026 22.114 80.4632 22.114ZM87.8891 22.228C86.9011 22.228 86.0208 21.9937 85.2481 21.525C84.4754 21.0563 83.8674 20.4167 83.4241 19.606C82.9808 18.7827 82.7591 17.8643 82.7591 16.851C82.7591 15.825 82.9744 14.913 83.4051 14.115C83.8484 13.317 84.4438 12.69 85.1911 12.234C85.9511 11.7653 86.7998 11.531 87.7371 11.531C88.4971 11.531 89.1684 11.6703 89.7511 11.949C90.3464 12.215 90.8468 12.5823 91.2521 13.051C91.6701 13.507 91.9868 14.0327 92.2021 14.628C92.4301 15.2107 92.5441 15.8187 92.5441 16.452C92.5441 16.5913 92.5314 16.7497 92.5061 16.927C92.4934 17.0917 92.4744 17.25 92.4491 17.402H84.0511V15.882H91.4231L90.5871 16.566C90.7011 15.9073 90.6378 15.3183 90.3971 14.799C90.1564 14.2797 89.8018 13.868 89.3331 13.564C88.8644 13.26 88.3324 13.108 87.7371 13.108C87.1418 13.108 86.5971 13.26 86.1031 13.564C85.6091 13.868 85.2228 14.305 84.9441 14.875C84.6781 15.4323 84.5704 16.0973 84.6211 16.87C84.5704 17.6173 84.6844 18.276 84.9631 18.846C85.2544 19.4033 85.6598 19.8403 86.1791 20.157C86.7111 20.461 87.2874 20.613 87.9081 20.613C88.5921 20.613 89.1684 20.4547 89.6371 20.138C90.1058 19.8213 90.4858 19.416 90.7771 18.922L92.2591 19.682C92.0564 20.1507 91.7398 20.5813 91.3091 20.974C90.8911 21.354 90.3908 21.658 89.8081 21.886C89.2381 22.114 88.5984 22.228 87.8891 22.228ZM94.468 22V11.759H96.197V13.754L95.912 13.583C96.1653 12.937 96.5707 12.4367 97.128 12.082C97.698 11.7147 98.363 11.531 99.123 11.531C99.8577 11.531 100.51 11.6957 101.08 12.025C101.663 12.3543 102.119 12.8103 102.448 13.393C102.79 13.9757 102.961 14.6343 102.961 15.369V22H101.175V15.939C101.175 15.369 101.074 14.8877 100.871 14.495C100.668 14.1023 100.377 13.7983 99.997 13.583C99.6297 13.355 99.2053 13.241 98.724 13.241C98.2427 13.241 97.812 13.355 97.432 13.583C97.0647 13.7983 96.7733 14.1087 96.558 14.514C96.3427 14.9067 96.235 15.3817 96.235 15.939V22H94.468ZM109.27 22.114C108.27 22.114 107.497 21.829 106.952 21.259C106.42 20.689 106.154 19.8847 106.154 18.846V13.45H104.292V11.759H104.672C105.128 11.759 105.489 11.6197 105.755 11.341C106.021 11.0623 106.154 10.695 106.154 10.239V9.403H107.921V11.759H110.22V13.45H107.921V18.789C107.921 19.131 107.972 19.4287 108.073 19.682C108.187 19.9353 108.371 20.138 108.624 20.29C108.878 20.4293 109.213 20.499 109.631 20.499C109.72 20.499 109.828 20.4927 109.954 20.48C110.094 20.4673 110.22 20.4547 110.334 20.442V22C110.17 22.038 109.986 22.0633 109.783 22.076C109.581 22.1013 109.41 22.114 109.27 22.114Z" fill="black"/>
<path d="M117.317 22.228C116.43 22.228 115.607 22.0633 114.847 21.734C114.087 21.392 113.441 20.9297 112.909 20.347C112.377 19.7643 111.984 19.093 111.731 18.333L113.631 17.535C113.973 18.409 114.473 19.0803 115.132 19.549C115.79 20.0177 116.55 20.252 117.412 20.252C117.918 20.252 118.362 20.176 118.742 20.024C119.122 19.8593 119.413 19.6313 119.616 19.34C119.831 19.0487 119.939 18.713 119.939 18.333C119.939 17.8137 119.793 17.402 119.502 17.098C119.21 16.794 118.78 16.5533 118.21 16.376L115.55 15.54C114.486 15.2107 113.675 14.7103 113.118 14.039C112.56 13.355 112.282 12.557 112.282 11.645C112.282 10.847 112.478 10.1503 112.871 9.555C113.263 8.947 113.802 8.472 114.486 8.13C115.182 7.788 115.974 7.617 116.861 7.617C117.709 7.617 118.482 7.769 119.179 8.073C119.875 8.36433 120.471 8.76967 120.965 9.289C121.471 9.80833 121.839 10.41 122.067 11.094L120.205 11.911C119.926 11.1637 119.489 10.5873 118.894 10.182C118.311 9.77667 117.633 9.574 116.861 9.574C116.392 9.574 115.98 9.65633 115.626 9.821C115.271 9.973 114.992 10.201 114.79 10.505C114.6 10.7963 114.505 11.1383 114.505 11.531C114.505 11.987 114.65 12.3923 114.942 12.747C115.233 13.1017 115.676 13.3677 116.272 13.545L118.742 14.324C119.869 14.666 120.718 15.16 121.288 15.806C121.858 16.4393 122.143 17.231 122.143 18.181C122.143 18.9663 121.934 19.663 121.516 20.271C121.11 20.879 120.547 21.3603 119.825 21.715C119.103 22.057 118.267 22.228 117.317 22.228ZM124.07 25.8V11.721H126.122V13.849L125.875 13.355C126.255 12.7723 126.762 12.3163 127.395 11.987C128.029 11.6577 128.751 11.493 129.561 11.493C130.537 11.493 131.411 11.7273 132.183 12.196C132.969 12.6647 133.583 13.3043 134.026 14.115C134.482 14.9257 134.71 15.8377 134.71 16.851C134.71 17.8643 134.482 18.7763 134.026 19.587C133.583 20.3977 132.975 21.0437 132.202 21.525C131.43 21.9937 130.549 22.228 129.561 22.228C128.763 22.228 128.035 22.0633 127.376 21.734C126.73 21.4047 126.23 20.9297 125.875 20.309L126.217 19.91V25.8H124.07ZM129.352 20.233C129.96 20.233 130.499 20.0873 130.967 19.796C131.436 19.5047 131.803 19.1057 132.069 18.599C132.348 18.0797 132.487 17.497 132.487 16.851C132.487 16.205 132.348 15.6287 132.069 15.122C131.803 14.6153 131.436 14.2163 130.967 13.925C130.499 13.6337 129.96 13.488 129.352 13.488C128.757 13.488 128.219 13.6337 127.737 13.925C127.269 14.2163 126.895 14.6153 126.616 15.122C126.35 15.6287 126.217 16.205 126.217 16.851C126.217 17.497 126.35 18.0797 126.616 18.599C126.895 19.1057 127.269 19.5047 127.737 19.796C128.219 20.0873 128.757 20.233 129.352 20.233ZM136.419 22V7.617H138.566V22H136.419ZM140.696 22V11.721H142.843V22H140.696ZM140.696 10.315V7.845H142.843V10.315H140.696ZM149.419 22.114C148.343 22.114 147.507 21.81 146.911 21.202C146.316 20.594 146.018 19.739 146.018 18.637V13.659H144.213V11.721H144.498C144.98 11.721 145.353 11.5817 145.619 11.303C145.885 11.0243 146.018 10.6443 146.018 10.163V9.365H148.165V11.721H150.502V13.659H148.165V18.542C148.165 18.8967 148.222 19.2007 148.336 19.454C148.45 19.6947 148.634 19.8847 148.887 20.024C149.141 20.1507 149.47 20.214 149.875 20.214C149.977 20.214 150.091 20.2077 150.217 20.195C150.344 20.1823 150.464 20.1697 150.578 20.157V22C150.401 22.0253 150.205 22.0507 149.989 22.076C149.774 22.1013 149.584 22.114 149.419 22.114Z" fill="black"/>
</svg>
